<svg width="512" height="512" viewBox="0 0 512 512" fill="none" xmlns="http://www.w3.org/2000/svg">
  <defs>
    <linearGradient id="bg" x1="64" y1="48" x2="448" y2="464" gradientUnits="userSpaceOnUse">
      <stop offset="0" stop-color="#F6D8AE"/>
      <stop offset="1" stop-color="#E9B384"/>
    </linearGradient>
    <linearGradient id="paper" x1="144" y1="104" x2="368" y2="408" gradientUnits="userSpaceOnUse">
      <stop offset="0" stop-color="#FFF9F1"/>
      <stop offset="1" stop-color="#FFF3E3"/>
    </linearGradient>
    <linearGradient id="fold" x1="304" y1="104" x2="368" y2="168" gradientUnits="userSpaceOnUse">
      <stop offset="0" stop-color="#F2C38B"/>
      <stop offset="1" stop-color="#E39A6D"/>
    </linearGradient>
  </defs>

  <!-- background -->
  <rect x="32" y="32" width="448" height="448" rx="112" fill="url(#bg)"/>

  <!-- back page -->
  <rect x="110" y="136" width="212" height="252" rx="28" fill="#E7A977" fill-opacity="0.28"/>

  <!-- main page -->
  <rect x="144" y="104" width="224" height="304" rx="32" fill="url(#paper)"/>

  <!-- folded corner -->
  <path d="M304 104L368 168H330C315.641 168 304 156.359 304 142V104Z" fill="url(#fold)"/>

  <!-- title -->
  <rect x="176" y="166" width="94" height="20" rx="10" fill="#D9895B"/>

  <!-- organized summary blocks -->
  <circle cx="158" cy="221" r="6" fill="#D9895B"/>
  <rect x="176" y="213" width="146" height="16" rx="8" fill="#EBC6A4"/>

  <circle cx="158" cy="253" r="6" fill="#D9895B"/>
  <rect x="176" y="245" width="118" height="16" rx="8" fill="#F0D4BA"/>

  <circle cx="158" cy="293" r="6" fill="#D9895B"/>
  <rect x="176" y="285" width="132" height="16" rx="8" fill="#D9895B"/>

  <circle cx="158" cy="325" r="6" fill="#D9895B"/>
  <rect x="176" y="317" width="154" height="16" rx="8" fill="#EBC6A4"/>

  <circle cx="158" cy="357" r="6" fill="#D9895B"/>
  <rect x="176" y="349" width="92" height="16" rx="8" fill="#F0D4BA"/>
</svg>
